<?xml version="1.0" encoding="UTF-8" standalone="no"?>
<svg id="Capa_1" inkscape:version="0.92.2 (5c3e80d, 2017-08-06)" sodipodi:docname="cloud-snow.svg" style="enable-background:new 0 0 26 26;" version="1.1" viewBox="0 0 26 26" x="0px" xml:space="preserve" xmlns="http://www.w3.org/2000/svg" xmlns:cc="http://creativecommons.org/ns#" xmlns:dc="http://purl.org/dc/elements/1.1/" xmlns:inkscape="http://www.inkscape.org/namespaces/inkscape" xmlns:rdf="http://www.w3.org/1999/02/22-rdf-syntax-ns#" xmlns:sodipodi="http://sodipodi.sourceforge.net/DTD/sodipodi-0.dtd" xmlns:svg="http://www.w3.org/2000/svg" y="0px">
  <metadata id="metadata41">
    <rdf:RDF>
      <cc:Work rdf:about="">
        <dc:format>image/svg+xml</dc:format>
        <dc:type rdf:resource="http://purl.org/dc/dcmitype/StillImage"/>
      </cc:Work>
    </rdf:RDF>
  </metadata>
  <defs id="defs39"/>
  <sodipodi:namedview bordercolor="#666666" borderopacity="1" gridtolerance="10" guidetolerance="10" id="namedview37" inkscape:current-layer="Capa_1" inkscape:cx="13" inkscape:cy="13" inkscape:pageopacity="0" inkscape:pageshadow="2" inkscape:window-height="1137" inkscape:window-maximized="1" inkscape:window-width="1920" inkscape:window-x="-8" inkscape:window-y="-8" inkscape:zoom="9.0769231" objecttolerance="10" pagecolor="#ffffff" showgrid="false"/>
  <g>
    <path d="M 21.863,6.184 C 21.252,3.217 18.594,0.991 15.5,0.991 13.272,0.991 11.193,2.158 10.012,4.018 9.838,4 9.667,3.991 9.5,3.991 7,3.991 4.878,5.658 4.227,7.999 1.872,8.141 0,10.101 0,12.491 c 0,2.481 2.019,4.5 4.5,4.5 h 16 c 3.032,0 5.5,-2.468 5.5,-5.5 C 26,8.952 24.27,6.793 21.863,6.184 Z M 20.5,14.991 h -16 c -1.378,0 -2.5,-1.122 -2.5,-2.5 0,-1.378 1.122,-2.5 2.5,-2.5 0.133,0 0.261,0.022 0.388,0.043 L 5.935,10.2 6.04,9.145 C 6.219,7.347 7.706,5.991 9.5,5.991 c 0.245,0 0.51,0.035 0.811,0.106 l 0.785,0.186 0.348,-0.728 c 0.744,-1.558 2.335,-2.564 4.056,-2.564 2.324,0 4.292,1.814 4.48,4.129 l 0.067,0.825 0.823,0.088 C 22.655,8.224 24,9.71 24,11.491 c 0,1.93 -1.57,3.5 -3.5,3.5 z" id="path2" inkscape:connector-curvature="0" sodipodi:nodetypes="cscscsssscsssscccscccscccss" style="fill:#030104"/>
    <path d="m 16.518,21.491 c 0,0.286 -0.231,0.518 -0.518,0.518 h -1.75 l 1.237,1.237 c 0.202,0.202 0.202,0.53 0,0.732 -0.102,0.101 -0.233,0.151 -0.366,0.151 -0.133,0 -0.265,-0.051 -0.366,-0.151 l -1.237,-1.237 v 1.75 c 0,0.286 -0.231,0.518 -0.518,0.518 -0.286,0 -0.518,-0.231 -0.518,-0.518 v -1.75 l -1.238,1.238 c -0.101,0.101 -0.233,0.151 -0.366,0.151 -0.133,0 -0.265,-0.051 -0.366,-0.151 -0.202,-0.202 -0.202,-0.53 0,-0.732 L 11.749,22.01 H 10 c -0.286,0 -0.518,-0.231 -0.518,-0.518 0,-0.287 0.232,-0.518 0.518,-0.518 h 1.75 l -1.237,-1.237 c -0.202,-0.202 -0.202,-0.53 0,-0.732 0.201,-0.201 0.53,-0.201 0.731,0 l 1.238,1.238 v -1.752 c 0,-0.286 0.232,-0.518 0.518,-0.518 0.286,0 0.518,0.231 0.518,0.518 v 1.75 l 1.237,-1.237 c 0.203,-0.201 0.529,-0.201 0.732,0 0.202,0.202 0.202,0.53 0,0.732 L 14.25,20.973 H 16 c 0.286,0 0.518,0.232 0.518,0.518 z" id="path44" inkscape:connector-curvature="0" sodipodi:nodetypes="sscscsccssscsscscssscssscssscccscss" style="fill:#030104"/>
    <path d="m 7.036,21.601169 c 0,0.286 -0.231,0.518 -0.518,0.518 h -1.75 l 1.237,1.237 c 0.202,0.202 0.202,0.53 0,0.732 -0.102,0.101 -0.233,0.151 -0.366,0.151 -0.133,0 -0.265,-0.051 -0.366,-0.151 l -1.237,-1.237 v 1.75 c 0,0.286 -0.231,0.518 -0.5179999,0.518 -0.286,0 -0.518,-0.231 -0.518,-0.518 v -1.75 l -1.238,1.238 c -0.101,0.101 -0.233,0.151 -0.3660001,0.151 -0.133,0 -0.265,-0.051 -0.366,-0.151 -0.20199995,-0.202 -0.20199995,-0.53 0,-0.732 l 1.2370001,-1.237 H 0.51800005 c -0.286,0 -0.51800005,-0.231 -0.51800005,-0.518 0,-0.287 0.23200005,-0.518 0.51800005,-0.518 H 2.2680001 L 1.031,19.847169 c -0.20199995,-0.202 -0.20199995,-0.53 0,-0.732 0.201,-0.201 0.5300001,-0.201 0.731,0 l 1.238,1.238 v -1.752 c 0,-0.286 0.232,-0.518 0.5180001,-0.518 0.2859999,0 0.5179999,0.231 0.5179999,0.518 v 1.75 l 1.237,-1.237 c 0.2030001,-0.201 0.529,-0.201 0.7320001,0 0.202,0.202 0.202,0.53 0,0.732 l -1.237,1.237 h 1.75 c 0.2859999,0 0.518,0.232 0.5179999,0.518 z" id="path46" inkscape:connector-curvature="0" sodipodi:nodetypes="sscscsccssscsscscssscssscssscccscss" style="fill:#030104"/>
    <path d="m 26,21.601169 c 0,0.286 -0.231,0.518 -0.518,0.518 h -1.75 l 1.237,1.237 c 0.202,0.202 0.202,0.53 0,0.732 -0.102,0.101 -0.233,0.151 -0.366,0.151 -0.133,0 -0.265,-0.051 -0.366,-0.151 L 23,22.851169 v 1.75 c 0,0.286 -0.231,0.518 -0.518,0.518 -0.286,0 -0.518,-0.231 -0.518,-0.518 v -1.75 l -1.238,1.238 c -0.101,0.101 -0.233,0.151 -0.366,0.151 -0.133,0 -0.265,-0.051 -0.366,-0.151 -0.202,-0.202 -0.202,-0.53 0,-0.732 l 1.237,-1.237 h -1.749 c -0.286,0 -0.518,-0.231 -0.518,-0.518 0,-0.287 0.232,-0.518 0.518,-0.518 h 1.75 l -1.237,-1.237 c -0.202,-0.202 -0.202,-0.53 0,-0.732 0.201,-0.201 0.53,-0.201 0.731,0 l 1.238,1.238 v -1.752 c 0,-0.286 0.232,-0.518 0.518,-0.518 0.286,0 0.518,0.231 0.518,0.518 v 1.75 l 1.237,-1.237 c 0.203,-0.201 0.529,-0.201 0.732,0 0.202,0.202 0.202,0.53 0,0.732 l -1.237,1.237 h 1.75 c 0.286,0 0.518,0.232 0.518,0.518 z" id="path48" inkscape:connector-curvature="0" sodipodi:nodetypes="sscscsccssscsscscssscssscssscccscss" style="fill:#030104"/>
  </g>
</svg>
