<?xml version="1.0" encoding="iso-8859-1"?>
<svg id="Layer_1" style="enable-background:new 0 0 482.05 482.05;" version="1.1" viewBox="0 0 482.05 482.05" x="0px" xml:space="preserve" xmlns="http://www.w3.org/2000/svg" xmlns:xlink="http://www.w3.org/1999/xlink" y="0px">
  <g transform="translate(0 -540.36)">
    <path d="M444.185,937.26l-44-21.5c-2.8-1.4-6-1.4-8.8,0l-39.6,19.4l-40.5-19.4c-2.7-1.4-6-1.3-8.7,0l-39.6,19.3l-39.6-19.3c-2.8-1.4-6-1.4-8.8,0l-39.6,19.4l-40.5-19.4c-2.7-1.4-6-1.3-8.7,0l-39.6,19.3l-39.6-19.3c-5-2.4-11-0.4-13.4,4.6c-2.4,5-0.4,11,4.6,13.4l44,21.5c2.8,1.4,6,1.4,8.8,0l39.6-19.4l40.5,19.4c2.7,1.4,6,1.3,8.7,0l39.6-19.3l39.6,19.3c2.8,1.4,6,1.4,8.8,0l39.6-19.4l40.5,19.4c2.7,1.4,6,1.3,8.7,0l39.6-19.3l39.6,19.3c1.4,0.7,2.9,1,4.4,1c3.7,0,7.2-2.1,9-5.6C451.185,945.66,449.185,939.66,444.185,937.26z"/>
    <path d="M444.185,871.16l-44-21.5c-2.8-1.4-6-1.4-8.8,0l-39.6,19.4l-40.5-19.4c-2.7-1.4-6-1.3-8.7,0l-39.6,19.3l-39.6-19.3c-2.8-1.4-6-1.4-8.8,0l-39.6,19.4l-40.5-19.4c-2.7-1.4-6-1.3-8.7,0l-39.6,19.3l-39.6-19.3c-5-2.4-11-0.4-13.4,4.6c-2.4,5-0.4,11,4.6,13.4l44,21.5c2.8,1.4,6,1.4,8.8,0l39.6-19.4l40.5,19.4c2.7,1.4,6,1.3,8.7,0l39.6-19.3l39.6,19.3c2.8,1.4,6,1.4,8.8,0l39.6-19.4l40.5,19.4c2.7,1.4,6,1.3,8.7,0l39.6-19.3l39.6,19.3c1.4,0.7,2.9,1,4.4,1c3.7,0,7.2-2.1,9-5.6C451.185,879.56,449.185,873.56,444.185,871.16z"/>
    <path d="M444.185,1003.36l-44-21.5c-2.8-1.4-6-1.4-8.8,0l-39.6,19.4l-40.5-19.4c-2.7-1.4-6-1.3-8.7,0l-39.6,19.3l-39.6-19.3c-2.8-1.4-6-1.4-8.8,0l-39.6,19.4l-40.5-19.4c-2.7-1.4-6-1.3-8.7,0l-39.6,19.3l-39.6-19.3c-5-2.4-11-0.4-13.4,4.6c-2.4,5-0.4,11,4.6,13.4l44,21.5c2.8,1.4,6,1.4,8.8,0l39.6-19.4l40.5,19.4c2.7,1.4,6,1.3,8.7,0l39.6-19.3l39.6,19.3c2.8,1.4,6,1.4,8.8,0l39.6-19.4l40.5,19.4c2.7,1.4,6,1.3,8.7,0l39.6-19.3l39.6,19.3c1.4,0.7,2.9,1,4.4,1c3.7,0,7.2-2.1,9-5.6C451.185,1011.76,449.185,1005.76,444.185,1003.36z"/>
    <path d="M115.085,756.76l15.2,7.6l-15.2,7.6c-4.9,2.5-7,8.5-4.5,13.4c1.7,3.5,5.3,5.5,9,5.5c1.5,0,3-0.3,4.4-1l18.7-9.3v22.3c0,5.5,4.5,10,10,10s10-4.5,10-10v-22.3l18.7,9.3c1.4,0.7,3,1,4.4,1c3.7,0,7.2-2,9-5.5c2.4-4.9,0.4-10.9-4.5-13.4l-15.2-7.6l15.2-7.6c4.9-2.5,7-8.5,4.5-13.4s-8.5-7-13.4-4.5l-18.7,9.3v-22.3c0-5.5-4.5-10-10-10s-10,4.5-10,10v22.3l-18.7-9.3c-4.9-2.5-10.9-0.4-13.4,4.5C108.085,748.26,110.185,754.26,115.085,756.76z"/>
    <path d="M288.085,785.46c1.8,3.5,5.3,5.5,8.9,5.5c1.5,0,3.1-0.3,4.5-1.1l18.3-9.2v22.2c0,5.5,4.5,10,10,10s10-4.5,10-10v-22.2l18.3,9.2c1.4,0.7,3,1.1,4.5,1.1c3.7,0,7.2-2,8.9-5.5c2.5-4.9,0.5-11-4.4-13.4l-15.1-7.6l15.1-7.6c4.9-2.5,6.9-8.5,4.4-13.4s-8.5-6.9-13.4-4.4l-18.3,9.2v-22.2c0-5.5-4.5-10-10-10s-10,4.5-10,10v22.2l-18.3-9.2c-4.9-2.5-10.9-0.5-13.4,4.4s-0.5,10.9,4.4,13.4l15.1,7.6l-15.1,7.6C287.585,774.56,285.585,780.56,288.085,785.46z"/>
    <path d="M53.785,692.96v22.2c0,5.5,4.5,10,10,10s10-4.5,10-10v-22.2l18.3,9.2c1.4,0.7,3,1.1,4.5,1.1c3.7,0,7.2-2,8.9-5.5c2.5-4.9,0.5-10.9-4.4-13.4l-15.1-7.6l15.1-7.6c4.9-2.5,6.9-8.5,4.4-13.4s-8.5-6.9-13.4-4.4l-18.3,9.2v-22.2c0-5.5-4.5-10-10-10s-10,4.5-10,10v22.2l-18.3-9.2c-4.9-2.5-10.9-0.5-13.4,4.4s-0.5,10.9,4.4,13.4l15.1,7.6l-15.1,7.6c-4.9,2.5-6.9,8.5-4.4,13.4c1.8,3.5,5.3,5.5,8.9,5.5c1.5,0,3.1-0.3,4.5-1.1L53.785,692.96z"/>
    <path d="M199.285,697.76c1.8,3.5,5.3,5.5,8.9,5.5c1.5,0,3.1-0.3,4.5-1.1l18.3-9.2v22.2c0,5.5,4.5,10,10,10s10-4.5,10-10v-22.2l18.3,9.2c1.4,0.7,3,1.1,4.5,1.1c3.7,0,7.2-2,8.9-5.5c2.5-4.9,0.5-10.9-4.4-13.4l-15.1-7.6l15.1-7.6c4.9-2.5,6.9-8.5,4.4-13.4s-8.5-6.9-13.4-4.4l-18.3,9.2v-22.2c0-5.5-4.5-10-10-10s-10,4.5-10,10v22.2l-18.3-9.2c-4.9-2.5-10.9-0.5-13.4,4.4s-0.5,10.9,4.4,13.4l15.1,7.6l-15.1,7.6C198.785,686.86,196.785,692.86,199.285,697.76z"/>
    <path d="M455.485,684.36l-15.2-7.6l15.2-7.6c4.9-2.5,7-8.5,4.5-13.4s-8.5-7-13.4-4.5l-18.7,9.3v-22.2c0-5.5-4.5-10-10-10s-10,4.5-10,10v22.3l-18.7-9.3c-4.9-2.5-10.9-0.4-13.4,4.5s-0.4,10.9,4.5,13.4l15.2,7.6l-15.2,7.6c-4.9,2.5-7,8.5-4.5,13.4c1.7,3.5,5.3,5.5,9,5.5c1.5,0,3-0.3,4.4-1l18.7-9.3v22.3c0,5.5,4.5,10,10,10s10-4.5,10-10v-22.3l18.7,9.3c1.4,0.7,3,1,4.4,1c3.7,0,7.2-2,9-5.5C462.385,692.86,460.385,686.86,455.485,684.36z"/>
    <path d="M115.085,580.86l15.2,7.6l-15.2,7.6c-4.9,2.5-7,8.5-4.5,13.4c1.7,3.5,5.3,5.5,9,5.5c1.5,0,3-0.3,4.4-1l18.7-9.3v21.9c0,5.5,4.5,10,10,10s10-4.5,10-10v-21.9l18.7,9.3c1.4,0.7,3,1,4.4,1c3.7,0,7.2-2,9-5.5c2.4-5,0.4-11-4.5-13.5v0l-15.2-7.6l15.2-7.6c4.9-2.5,7-8.5,4.5-13.4s-8.5-7-13.4-4.5l-18.7,9.3v-21.8c0-5.5-4.5-10-10-10s-10,4.5-10,10v21.9l-18.7-9.3c-4.9-2.5-10.9-0.4-13.4,4.5C108.085,572.36,110.185,578.36,115.085,580.86z"/>
    <path d="M288.085,609.36c1.8,3.5,5.3,5.5,8.9,5.5c1.5,0,3.1-0.3,4.5-1.1l18.3-9.2v21.8c0,5.5,4.5,10,10,10s10-4.5,10-10v-21.8l18.3,9.2c1.4,0.7,3,1.1,4.5,1.1c3.7,0,7.2-2,8.9-5.5c2.5-4.9,0.5-10.9-4.4-13.4l-15.1-7.6l15.1-7.6c4.9-2.5,6.9-8.5,4.4-13.4s-8.5-6.9-13.4-4.4l-18.3,9.2v-21.8c0-5.5-4.5-10-10-10s-10,4.5-10,10v21.8l-18.3-9.2c-4.9-2.5-10.9-0.5-13.4,4.4s-0.5,10.9,4.4,13.4l15.1,7.6l-15.1,7.6C287.585,598.46,285.585,604.46,288.085,609.36z"/>
  </g>
</svg>
