<?xml version="1.0" encoding="iso-8859-1"?>
<svg id="Capa_1" style="enable-background:new 0 0 512 512;" version="1.1" viewBox="0 0 512 512" x="0px" xml:space="preserve" xmlns="http://www.w3.org/2000/svg" xmlns:xlink="http://www.w3.org/1999/xlink" y="0px">
  <g>
    <path d="M448,427.745V298.477c17.298,0.044,33.283-6.592,45.25-18.56c12.5-12.5,19.313-29.823,18.708-47.51c-0.521-14.979-7.292-29.448-19.083-40.75c-7.396-7.094-14.604-12.25-22.042-15.75c-12.563-5.896-21.646-17.281-24.271-30.365l-0.583-2.677c-4.875-20.49-19.042-38.26-38.875-48.771c-8.583-4.552-17.479-7.365-26.438-8.365c-11.979-1.313-21.917-8.813-26.583-20.073C337.521,25.771,299.021,0,256,0s-81.521,25.771-98.083,65.667c-4.667,11.25-14.604,18.75-26.604,20.063c-8.938,1-17.833,3.813-26.417,8.365c-19.833,10.51-34,28.281-38.958,49.125c-0.021,0.073-0.458,2.177-0.479,2.25c-2.646,13.156-11.729,24.542-24.292,30.438c-7.438,3.5-14.646,8.656-22.021,15.75c-11.813,11.302-18.583,25.771-19.104,40.74c-0.604,17.698,6.208,35.021,18.708,47.521C30.715,291.892,47.104,298.645,64,298.66v129.085c-36.089,5.232-64,36.074-64,73.589C0,507.229,4.771,512,10.667,512h490.667c5.896,0,10.667-4.771,10.667-10.667C512,463.819,484.089,432.977,448,427.745z M33.833,264.833c-8.458-8.458-12.875-19.708-12.458-31.698c0.313-9.385,4.771-18.646,12.542-26.083c5.604-5.396,11.104-9.375,16.333-11.833c18.646-8.76,32.146-25.792,36.521-47.417c3.458-14.51,13.708-27.219,28.125-34.854c6.208-3.292,12.521-5.313,18.771-6.01c19.542-2.146,36.375-14.833,43.958-33.094c13.25-31.896,44-52.51,78.375-52.51s65.125,20.615,78.375,52.5c7.583,18.271,24.417,30.958,43.938,33.104c6.271,0.698,12.583,2.719,18.792,6.01c14.417,7.635,24.667,20.344,28.521,36.729c3.979,19.75,17.479,36.781,36.125,45.542c5.229,2.458,10.729,6.438,16.354,11.833c7.75,7.438,12.208,16.698,12.521,26.094c0.417,11.979-4,23.229-12.458,31.688c-8.458,8.458-20.333,12.698-31.688,12.479c-9.25-0.323-18.75-4.896-26.104-12.542c-8.563-8.938-13.375-17.219-14.667-25.333c-2.438-15.146-15.896-26.104-32.229-26.104c-0.042,0-0.104,0-0.146,0c-8.563,0-16.729-1.979-24.271-5.865c-6.25-3.24-10.896-10.313-16.25-18.49c-10.979-16.74-26.021-39.646-66.146-39.646c-35.833,0-46.646,8.938-64.146,26.073c-8.958,8.75-20.083,19.646-40.396,32.521c-5.667,3.583-13.563,5.406-23.667,5.406c-0.042,0-0.104,0-0.146,0c-16.125,0-29.583,10.958-32.042,26.135c-1.271,8.083-6.083,16.365-14.667,25.302c-7.333,7.646-16.833,12.219-26.083,12.542C54.125,277.573,42.292,273.292,33.833,264.833z M330.667,277.333H181.333c-5.896,0-10.667,4.771-10.667,10.667v97.945c-29.951,5.021-56.68,20.234-76.292,43.461c-2.993-0.84-6.013-1.438-9.042-1.892V294.259c7.885-3.237,15.302-8.082,21.667-14.717c11.708-12.188,18.354-24.198,20.333-36.688c0.771-4.677,5.479-8.188,11.271-8.188c0.021,0,0.042,0,0.063,0c14,0,25.729-2.938,34.875-8.719c22.208-14.073,34.75-26.344,43.896-35.292c14.458-14.135,20.438-19.99,49.229-19.99c28.604,0,37.729,13.906,48.292,30.01c6.438,9.792,13.083,19.927,24.313,25.74c10.458,5.396,22.229,8.25,34.354,8.25c0.021,0,0.042,0,0.063,0c5.5,0,10.208,3.51,10.958,8.156c2,12.521,8.646,24.531,20.354,36.719c6.365,6.635,13.781,11.48,21.667,14.717v133.303c-4.285,0.655-8.539,1.619-12.729,3.063c-14.635-33.327-40.758-59.543-72.604-74.732V288C341.333,282.104,336.563,277.333,330.667,277.333z M320,298.667v48.953c-13.622-4.085-27.96-6.286-42.667-6.286c-31.092,0-60.493,9.482-85.333,26.962v-69.629H320z M22.396,490.667c6.208-30.469,39.958-51.406,71.75-38.854c4.417,1.76,9.563,0.323,12.458-3.521c17.354-23.198,42.625-38.073,71.167-41.885c2.438-0.323,4.667-1.479,6.354-3.271c24.521-26.094,57.625-40.469,93.208-40.469c54.188,0,102.666,34.406,120.646,85.604c1.021,2.917,3.271,5.25,6.125,6.385c2.875,1.135,6.083,0.969,8.854-0.448c7.938-4.125,16.146-6.208,24.375-6.208c25.75,0,47.313,18.354,52.271,42.667H22.396z"/>
  </g>
</svg>
